<?xml version="1.0" standalone="no"?><svg xmlns="http://www.w3.org/2000/svg" viewBox="0 0 1440 320"><path fill="#edf2fc" fill-opacity="1" d="M0,64L14.1,96C28.2,128,56,192,85,181.3C112.9,171,141,85,169,58.7C197.6,32,226,64,254,90.7C282.4,117,311,139,339,144C367.1,149,395,139,424,144C451.8,149,480,171,508,186.7C536.5,203,565,213,593,197.3C621.2,181,649,139,678,149.3C705.9,160,734,224,762,234.7C790.6,245,819,203,847,160C875.3,117,904,75,932,90.7C960,107,988,181,1016,181.3C1044.7,181,1073,107,1101,69.3C1129.4,32,1158,32,1186,42.7C1214.1,53,1242,75,1271,80C1298.8,85,1327,75,1355,85.3C1383.5,96,1412,128,1426,144L1440,160L1440,320L1425.9,320C1411.8,320,1384,320,1355,320C1327.1,320,1299,320,1271,320C1242.4,320,1214,320,1186,320C1157.6,320,1129,320,1101,320C1072.9,320,1045,320,1016,320C988.2,320,960,320,932,320C903.5,320,875,320,847,320C818.8,320,791,320,762,320C734.1,320,706,320,678,320C649.4,320,621,320,593,320C564.7,320,536,320,508,320C480,320,452,320,424,320C395.3,320,367,320,339,320C310.6,320,282,320,254,320C225.9,320,198,320,169,320C141.2,320,113,320,85,320C56.5,320,28,320,14,320L0,320Z"></path></svg>