<svg width="100%" height="100%" id="svg" viewBox="0 0 1440 590" xmlns="http://www.w3.org/2000/svg" class="transition duration-300 ease-in-out delay-150"><defs><linearGradient id="gradient" x1="0%" y1="50%" x2="100%" y2="50%"><stop offset="5%" stop-color="#3f3d56"></stop><stop offset="95%" stop-color="#8ED1FC"></stop></linearGradient></defs><path d="M 0,600 C 0,600 0,200 0,200 C 59.40206185567013,224.04804860088365 118.80412371134025,248.09609720176732 175,225 C 231.19587628865975,201.90390279823268 284.18556701030917,131.66365979381442 355,135 C 425.81443298969083,138.33634020618558 514.4536082474227,215.24926362297498 571,241 C 627.5463917525773,266.750736377025 651.9999999999999,241.3392857142857 704,236 C 756.0000000000001,230.6607142857143 835.5463917525775,245.39359351988216 910,233 C 984.4536082474225,220.60640648011784 1053.8144329896907,181.08634020618558 1106,161 C 1158.1855670103093,140.91365979381442 1193.19587628866,140.26104565537554 1246,150 C 1298.80412371134,159.73895434462446 1369.4020618556701,179.86947717231223 1440,200 C 1440,200 1440,600 1440,600 Z" stroke="none" stroke-width="0" fill="url(#gradient)" fill-opacity="0.53" class="transition-all duration-300 ease-in-out delay-150 path-0"></path><defs><linearGradient id="gradient" x1="0%" y1="50%" x2="100%" y2="50%"><stop offset="5%" stop-color="#3f3d56"></stop><stop offset="95%" stop-color="#8ED1FC"></stop></linearGradient></defs><path d="M 0,600 C 0,600 0,400 0,400 C 78.11027245949926,372.7928939617084 156.2205449189985,345.5857879234168 206,365 C 255.7794550810015,384.4142120765832 277.22809278350513,450.44974226804135 339,472 C 400.77190721649487,493.55025773195865 502.86708394698087,470.6152430044182 566,435 C 629.1329160530191,399.3847569955818 653.3035714285714,351.0892857142858 710,330 C 766.6964285714286,308.9107142857142 855.9186303387334,315.0276141384389 931,347 C 1006.0813696612666,378.9723858615611 1067.021907216495,436.8002577319587 1110,453 C 1152.978092783505,469.1997422680413 1177.993740795287,443.7713549337261 1230,428 C 1282.006259204713,412.2286450662739 1361.0031296023565,406.11432253313694 1440,400 C 1440,400 1440,600 1440,600 Z" stroke="none" stroke-width="0" fill="url(#gradient)" fill-opacity="1" class="transition-all duration-300 ease-in-out delay-150 path-1"></path></svg>